<svg width="177" height="45" viewBox="0 0 177 45" fill="none" xmlns="http://www.w3.org/2000/svg">
<path d="M22.375 5.18501C22.375 7.50785 20.492 9.39089 18.1691 9.39089C16.558 9.39089 15.1585 8.48504 14.4521 7.15487L4.24227 10.2811C4.12261 11.2384 3.30589 11.9791 2.31618 11.9791C1.24409 11.9791 0.375 11.11 0.375 10.0379C0.375 8.96587 1.24409 8.09677 2.31618 8.09677C3.01187 8.09677 3.62209 8.46275 3.96481 9.01268L14.0292 5.93095C13.9859 5.68885 13.9632 5.43957 13.9632 5.18501C13.9632 2.86216 15.8463 0.979126 18.1691 0.979126C20.492 0.979126 22.375 2.86216 22.375 5.18501Z" fill="#1429BB"/>
<path d="M37.2574 10.685C37.2574 12.413 35.9026 13.8246 34.1974 13.9156L32.0343 21.9883C33.5789 22.6107 34.6691 24.1235 34.6691 25.8909C34.6691 28.2137 32.7861 30.0968 30.4632 30.0968C28.1404 30.0968 26.2574 28.2137 26.2574 25.8909C26.2574 25.3919 26.3442 24.9132 26.5037 24.4691L20.3394 20.9102C19.8698 21.3884 19.2159 21.685 18.4926 21.685C17.7522 21.685 17.0844 21.3741 16.6127 20.8757L10.2339 24.5585C10.5492 25.1484 10.7279 25.8223 10.7279 26.538C10.7279 27.2983 10.5262 28.0115 10.1733 28.627L14.2096 32.6633C15.3244 31.8625 16.6917 31.3909 18.1691 31.3909C18.2776 31.3909 18.3854 31.3934 18.4927 31.3985L18.4926 31.3909C18.4926 30.3188 19.3617 29.4497 20.4338 29.4497C21.5059 29.4497 22.375 30.3188 22.375 31.3909C22.375 31.8304 22.2289 32.2359 21.9826 32.5613C23.5281 33.6113 24.618 35.2817 24.8944 37.2144H29.6031C29.8696 36.4605 30.5886 35.9203 31.4338 35.9203C32.5059 35.9203 33.375 36.7894 33.375 37.8615C33.375 38.9336 32.5059 39.8027 31.4338 39.8027C30.5886 39.8027 29.8696 39.2625 29.6031 38.5085H24.9557C24.7868 42.1106 21.813 44.9791 18.1691 44.9791C14.4168 44.9791 11.375 41.9373 11.375 38.185C11.375 36.377 12.0812 34.734 13.2328 33.5167L9.35905 29.643C8.61112 30.3267 7.6153 30.7438 6.52206 30.7438C4.19921 30.7438 2.31618 28.8608 2.31618 26.538C2.31618 24.2151 4.19921 22.3321 6.52206 22.3321C7.65964 22.3321 8.69173 22.7837 9.44882 23.5174L15.9858 19.7433C15.9327 19.5366 15.9044 19.32 15.9044 19.0968C15.9044 17.6673 17.0632 16.5085 18.4926 16.5085C19.9221 16.5085 21.0809 17.6673 21.0809 19.0968C21.0809 19.3368 21.0482 19.5692 20.9871 19.7898L27.1243 23.3331C27.893 22.331 29.1027 21.685 30.4632 21.685C30.5673 21.685 30.6706 21.6888 30.7728 21.6962L32.909 13.7237C31.6705 13.27 30.7868 12.0807 30.7868 10.685C30.7868 8.8982 32.2353 7.44971 34.0221 7.44971C35.8089 7.44971 37.2574 8.8982 37.2574 10.685Z" fill="#1429BB"/>
<path d="M24.9632 13.2732C26.0353 13.2732 26.9044 12.4042 26.9044 11.3321C26.9044 10.26 26.0353 9.39089 24.9632 9.39089C23.8912 9.39089 23.0221 10.26 23.0221 11.3321C23.0221 12.4042 23.8912 13.2732 24.9632 13.2732Z" fill="#1429BB"/>
<path d="M2.31618 19.0968C3.38826 19.0968 4.25735 18.2277 4.25735 17.1556C4.25735 16.0835 3.38826 15.2144 2.31618 15.2144C1.24409 15.2144 0.375 16.0835 0.375 17.1556C0.375 18.2277 1.24409 19.0968 2.31618 19.0968Z" fill="#1429BB"/>
<path d="M52.324 38.4791V9.72913H61.0129C63.0148 9.72913 64.7078 10.0273 66.0921 10.6236C67.4976 11.2199 68.6263 12.0078 69.4782 12.9875C70.33 13.9458 70.9476 15 71.331 16.15C71.7356 17.2787 71.9379 18.3967 71.9379 19.5041C71.9379 20.5902 71.7462 21.7083 71.3629 22.8583C70.9796 23.987 70.3513 25.0412 69.4782 26.0208C68.6263 26.9791 67.5083 27.7564 66.124 28.3527C64.7398 28.949 63.0361 29.2472 61.0129 29.2472H57.8824V38.4791H52.324ZM57.8824 24.2638H60.6935C62.0564 24.2638 63.1319 24.0296 63.9198 23.5611C64.7291 23.0713 65.3041 22.4643 65.6449 21.7402C66.0069 21.0162 66.1879 20.2708 66.1879 19.5041C66.1879 18.7588 66.0175 18.024 65.6768 17.3C65.3361 16.5546 64.7611 15.937 63.9518 15.4472C63.1638 14.9574 62.0777 14.7125 60.6935 14.7125H57.8824V24.2638Z" fill="#1429BB"/>
<path d="M74.9946 38.4791V19.3125H79.9779V22.6027C80.6381 21.4953 81.4687 20.6435 82.4696 20.0472C83.4918 19.4296 84.6844 19.1208 86.0474 19.1208L87.2613 24.0402C86.8566 23.9125 86.3988 23.8486 85.8876 23.8486C84.2904 23.8486 83.002 24.3703 82.0224 25.4138C81.0427 26.4361 80.5529 27.9055 80.5529 29.8222V38.4791H74.9946Z" fill="#1429BB"/>
<path d="M97.6801 38.9902C95.9125 38.9902 94.3047 38.5324 92.8565 37.6166C91.4084 36.7009 90.2477 35.487 89.3746 33.975C88.5227 32.4416 88.0968 30.7486 88.0968 28.8958C88.0968 27.043 88.5227 25.35 89.3746 23.8166C90.2477 22.2833 91.4084 21.0694 92.8565 20.175C94.3047 19.2592 95.9125 18.8013 97.6801 18.8013C98.9153 18.8013 100.044 19.025 101.066 19.4722C102.088 19.8981 102.962 20.4944 103.686 21.2611V19.3125H108.477V38.4791H103.686V36.5305C102.962 37.2972 102.088 37.9041 101.066 38.3513C100.044 38.7773 98.9153 38.9902 97.6801 38.9902ZM98.351 34.1027C99.288 34.1027 100.14 33.8685 100.907 33.4C101.673 32.9314 102.28 32.3032 102.727 31.5152C103.196 30.7273 103.43 29.8541 103.43 28.8958C103.43 27.9375 103.196 27.0643 102.727 26.2763C102.28 25.4884 101.673 24.8601 100.907 24.3916C100.14 23.9231 99.288 23.6888 98.351 23.6888C97.4139 23.6888 96.5621 23.9231 95.7954 24.3916C95.0287 24.8601 94.4112 25.4884 93.9426 26.2763C93.4954 27.0643 93.2718 27.9375 93.2718 28.8958C93.2718 29.8541 93.4954 30.7273 93.9426 31.5152C94.4112 32.3032 95.0287 32.9314 95.7954 33.4C96.5621 33.8685 97.4139 34.1027 98.351 34.1027Z" fill="#1429BB"/>
<path d="M112.684 38.4791V19.3125H117.667V21.4208C118.349 20.5263 119.19 19.8449 120.191 19.3763C121.192 18.9078 122.267 18.6736 123.417 18.6736C124.78 18.6736 126.047 19.0037 127.219 19.6638C128.411 20.3027 129.37 21.2504 130.094 22.5069C130.839 23.7421 131.212 25.2435 131.212 27.0111V38.4791H125.653V27.7458C125.653 26.681 125.334 25.7333 124.695 24.9027C124.056 24.0722 123.141 23.6569 121.948 23.6569C120.99 23.6569 120.127 23.987 119.36 24.6472C118.615 25.2861 118.242 26.2976 118.242 27.6819V38.4791H112.684Z" fill="#1429BB"/>
<path d="M142.898 38.4791L155.58 8.7069H155.644L168.326 38.4791H162.544L160.404 33.368H150.629L148.489 38.4791H142.898ZM152.546 28.768H158.487L157.242 25.8291C156.901 25.0412 156.581 24.2851 156.283 23.5611C156.006 22.8157 155.74 21.9532 155.485 20.9736C155.25 21.9319 154.995 22.7838 154.718 23.5291C154.441 24.2745 154.132 25.0412 153.792 25.8291L152.546 28.768Z" fill="#1429BB"/>
<path d="M170.877 38.4791V19.3125H176.435V38.4791H170.877ZM173.656 16.5333C172.825 16.5333 172.123 16.2458 171.548 15.6708C170.973 15.0958 170.685 14.393 170.685 13.5625C170.685 12.7106 170.973 12.0078 171.548 11.4541C172.123 10.8791 172.825 10.5916 173.656 10.5916C174.508 10.5916 175.211 10.8791 175.764 11.4541C176.339 12.0078 176.627 12.7106 176.627 13.5625C176.627 14.393 176.339 15.0958 175.764 15.6708C175.211 16.2458 174.508 16.5333 173.656 16.5333Z" fill="#1429BB"/>
</svg>
