<svg width="126" height="32" viewBox="0 0 126 32" fill="none" xmlns="http://www.w3.org/2000/svg">
<path d="M15.9064 3.05882C15.9064 4.74817 14.545 6.11765 12.8655 6.11765C11.7006 6.11765 10.6888 5.45884 10.178 4.49145L2.79611 6.76511C2.7096 7.46132 2.11909 8 1.40351 8C0.628372 8 0 7.36793 0 6.58824C0 5.80854 0.628372 5.17647 1.40351 5.17647C1.90651 5.17647 2.34771 5.44263 2.59551 5.84258L9.87224 3.60132C9.84091 3.42525 9.82456 3.24396 9.82456 3.05882C9.82456 1.36948 11.186 0 12.8655 0C14.545 0 15.9064 1.36948 15.9064 3.05882Z" fill="white"/>
<path d="M26.6667 7.05882C26.6667 8.31555 25.6872 9.34215 24.4542 9.40837L22.8903 15.2794C24.0071 15.732 24.7953 16.8322 24.7953 18.1176C24.7953 19.807 23.4339 21.1765 21.7544 21.1765C20.0749 21.1765 18.7135 19.807 18.7135 18.1176C18.7135 17.7547 18.7763 17.4066 18.8916 17.0836L14.4347 14.4953C14.0951 14.8431 13.6223 15.0588 13.0994 15.0588C12.5641 15.0588 12.0812 14.8327 11.7401 14.4702L7.12821 17.1486C7.35615 17.5777 7.48538 18.0678 7.48538 18.5882C7.48538 19.1412 7.3395 19.6599 7.08434 20.1076L10.0027 23.0431C10.8087 22.4606 11.7973 22.1176 12.8655 22.1176C12.9439 22.1176 13.0219 22.1195 13.0994 22.1232L13.0994 22.1176C13.0994 21.338 13.7278 20.7059 14.5029 20.7059C15.2781 20.7059 15.9064 21.338 15.9064 22.1176C15.9064 22.4373 15.8008 22.7322 15.6227 22.9688C16.7401 23.7325 17.5281 24.9473 17.728 26.3529H21.1325C21.3252 25.8046 21.845 25.4118 22.4561 25.4118C23.2313 25.4118 23.8597 26.0438 23.8597 26.8235C23.8597 27.6032 23.2313 28.2353 22.4561 28.2353C21.845 28.2353 21.3252 27.8424 21.1325 27.2941H17.7723C17.6502 29.9138 15.5001 32 12.8655 32C10.1525 32 7.95322 29.7878 7.95322 27.0588C7.95322 25.7439 8.46381 24.549 9.29644 23.6637L6.49565 20.8464C5.95487 21.3437 5.23488 21.6471 4.44445 21.6471C2.76498 21.6471 1.40351 20.2776 1.40351 18.5882C1.40351 16.8989 2.76498 15.5294 4.44445 15.5294C5.26694 15.5294 6.01316 15.8579 6.56055 16.3915L11.2869 13.6467C11.2485 13.4964 11.2281 13.3388 11.2281 13.1765C11.2281 12.1369 12.0659 11.2941 13.0994 11.2941C14.1329 11.2941 14.9708 12.1369 14.9708 13.1765C14.9708 13.351 14.9471 13.5201 14.9029 13.6805L19.3402 16.2574C19.8961 15.5287 20.7707 15.0588 21.7544 15.0588C21.8297 15.0588 21.9043 15.0616 21.9782 15.067L23.5227 9.26882C22.6273 8.9388 21.9883 8.07387 21.9883 7.05882C21.9883 5.75933 23.0356 4.70588 24.3275 4.70588C25.6194 4.70588 26.6667 5.75933 26.6667 7.05882Z" fill="white"/>
<path d="M17.7778 8.94118C18.5529 8.94118 19.1813 8.30911 19.1813 7.52941C19.1813 6.74972 18.5529 6.11765 17.7778 6.11765C17.0026 6.11765 16.3743 6.74972 16.3743 7.52941C16.3743 8.30911 17.0026 8.94118 17.7778 8.94118Z" fill="white"/>
<path d="M1.40351 13.1765C2.17865 13.1765 2.80702 12.5444 2.80702 11.7647C2.80702 10.985 2.17865 10.3529 1.40351 10.3529C0.628372 10.3529 0 10.985 0 11.7647C0 12.5444 0.628372 13.1765 1.40351 13.1765Z" fill="white"/>
<path d="M34.8213 25.0667V3.50667H39.5733C41.4507 3.50667 42.9564 3.78044 44.0907 4.328C45.2249 4.87556 46.0462 5.63822 46.5547 6.616C47.0631 7.57422 47.3173 8.67911 47.3173 9.93067C47.3173 12.2187 46.6524 13.9884 45.3227 15.24C43.9929 16.472 41.9787 17.088 39.28 17.088H38.136V25.0667H34.8213ZM38.136 14.184H39.368C40.6587 14.184 41.6364 13.9787 42.3013 13.568C42.9662 13.1573 43.416 12.6489 43.6507 12.0427C43.8853 11.4364 44.0027 10.8498 44.0027 10.2827C44.0027 9.59822 43.8756 8.96267 43.6213 8.376C43.3671 7.78933 42.9271 7.31022 42.3013 6.93867C41.6756 6.56711 40.7956 6.38133 39.6613 6.38133H38.136V14.184Z" fill="white"/>
<path d="M49.4525 25.0667V11.6027H52.6205V14.2427C52.9334 13.3627 53.432 12.6489 54.1165 12.1013C54.8205 11.5342 55.632 11.2507 56.5512 11.2507C57.1769 11.2507 57.6072 11.3093 57.8418 11.4267L57.4018 14.624C57.2258 14.5067 56.8445 14.448 56.2578 14.448C55.7689 14.448 55.2409 14.5556 54.6738 14.7707C54.1067 14.9858 53.6178 15.3671 53.2071 15.9147C52.816 16.4427 52.6205 17.1858 52.6205 18.144V25.0667H49.4525Z" fill="white"/>
<path d="M65.6071 25.36C64.4142 25.36 63.2996 25.0764 62.2631 24.5093C61.2462 23.9422 60.4249 23.1307 59.7991 22.0747C59.1734 21.0187 58.8605 19.7573 58.8605 18.2907C58.8605 16.8827 59.1245 15.6507 59.6525 14.5947C60.2 13.5387 60.9627 12.7173 61.9405 12.1307C62.9378 11.544 64.1209 11.2507 65.4898 11.2507C66.3111 11.2507 67.0542 11.3973 67.7191 11.6907C68.4036 11.9644 68.9707 12.3067 69.4205 12.7173C69.8898 13.1084 70.2027 13.4898 70.3591 13.8613L70.4178 11.6027H73.4391V25.0667H70.4471L70.3885 22.6907C70.1929 23.1209 69.8605 23.5413 69.3911 23.952C68.9414 24.3627 68.3938 24.7049 67.7485 24.9787C67.1031 25.2329 66.3894 25.36 65.6071 25.36ZM66.1351 22.72C66.8587 22.72 67.5138 22.5538 68.1005 22.2213C68.7067 21.8693 69.1858 21.3804 69.5378 20.7547C69.9094 20.1289 70.0951 19.3858 70.0951 18.5253V18.32C70.0951 17.44 69.9094 16.6773 69.5378 16.032C69.1858 15.3671 68.7067 14.8587 68.1005 14.5067C67.5138 14.1351 66.8587 13.9493 66.1351 13.9493C64.8249 13.9493 63.8373 14.3698 63.1725 15.2107C62.5271 16.0516 62.2045 17.088 62.2045 18.32C62.2045 19.5716 62.5271 20.6178 63.1725 21.4587C63.8373 22.2996 64.8249 22.72 66.1351 22.72Z" fill="white"/>
<path d="M77.2124 25.0667V11.6027H80.3217L80.351 14.0667C80.703 13.2649 81.2701 12.6 82.0524 12.072C82.8541 11.5244 83.8124 11.2507 84.927 11.2507C86.3741 11.2507 87.4595 11.5538 88.183 12.16C88.9066 12.7467 89.3857 13.5876 89.6204 14.6827C89.8746 15.7778 90.0017 17.0782 90.0017 18.584V25.0667H86.8337V18.672C86.8337 17.1076 86.6772 15.9147 86.3644 15.0933C86.071 14.272 85.3768 13.8613 84.2817 13.8613C83.7146 13.8613 83.1279 14.0373 82.5217 14.3893C81.9155 14.7413 81.407 15.2498 80.9964 15.9147C80.5857 16.5796 80.3804 17.4009 80.3804 18.3787V25.0667H77.2124Z" fill="white"/>
<path d="M109.048 3.47733H109.371L119.755 25.0667H115.971L114.123 20.8427H104.238L102.39 25.0667H98.7229L109.048 3.47733ZM109.195 9.72533L107.904 12.6587L105.558 17.88H112.832L110.515 12.688L109.254 9.72533H109.195Z" fill="white"/>
<path d="M121.476 25.0667V11.6027H124.761V25.0667H121.476ZM123.118 9.08C122.512 9.08 122.004 8.87467 121.593 8.464C121.202 8.05333 121.006 7.54489 121.006 6.93867C121.006 6.39111 121.202 5.92178 121.593 5.53067C122.004 5.13955 122.512 4.944 123.118 4.944C123.725 4.944 124.223 5.13955 124.614 5.53067C125.025 5.92178 125.23 6.39111 125.23 6.93867C125.23 7.54489 125.025 8.05333 124.614 8.464C124.223 8.87467 123.725 9.08 123.118 9.08Z" fill="white"/>
</svg>
