<svg width="177" height="45" viewBox="0 0 177 45" fill="none" xmlns="http://www.w3.org/2000/svg">
<g opacity="0.3">
<path d="M22 4.68501C22 7.00785 20.117 8.89089 17.7941 8.89089C16.183 8.89089 14.7835 7.98504 14.0771 6.65487L3.86727 9.78115C3.74761 10.7384 2.93089 11.4791 1.94118 11.4791C0.869094 11.4791 0 10.61 0 9.53795C0 8.46587 0.869094 7.59677 1.94118 7.59677C2.63687 7.59677 3.24709 7.96275 3.58981 8.51268L13.6542 5.43095C13.6109 5.18885 13.5882 4.93957 13.5882 4.68501C13.5882 2.36216 15.4713 0.479126 17.7941 0.479126C20.117 0.479126 22 2.36216 22 4.68501Z" fill="white"/>
<path d="M36.8824 10.185C36.8824 11.913 35.5276 13.3246 33.8224 13.4156L31.6593 21.4883C33.2039 22.1107 34.2941 23.6235 34.2941 25.3909C34.2941 27.7137 32.4111 29.5968 30.0882 29.5968C27.7654 29.5968 25.8824 27.7137 25.8824 25.3909C25.8824 24.8919 25.9692 24.4132 26.1287 23.9691L19.9644 20.4102C19.4948 20.8884 18.8409 21.185 18.1176 21.185C17.3772 21.185 16.7094 20.8741 16.2377 20.3757L9.85894 24.0585C10.1742 24.6484 10.3529 25.3223 10.3529 26.038C10.3529 26.7983 10.1512 27.5115 9.79826 28.127L13.8346 32.1633C14.9494 31.3625 16.3167 30.8909 17.7941 30.8909C17.9026 30.8909 18.0104 30.8934 18.1177 30.8985L18.1176 30.8909C18.1176 29.8188 18.9867 28.9497 20.0588 28.9497C21.1309 28.9497 22 29.8188 22 30.8909C22 31.3304 21.8539 31.7359 21.6076 32.0613C23.1531 33.1113 24.243 34.7817 24.5194 36.7144H29.2281C29.4946 35.9605 30.2136 35.4203 31.0588 35.4203C32.1309 35.4203 33 36.2894 33 37.3615C33 38.4336 32.1309 39.3027 31.0588 39.3027C30.2136 39.3027 29.4946 38.7625 29.2281 38.0085H24.5807C24.4118 41.6106 21.438 44.4791 17.7941 44.4791C14.0418 44.4791 11 41.4373 11 37.685C11 35.877 11.7062 34.234 12.8578 33.0167L8.98405 29.143C8.23612 29.8267 7.2403 30.2438 6.14706 30.2438C3.82421 30.2438 1.94118 28.3608 1.94118 26.038C1.94118 23.7151 3.82421 21.8321 6.14706 21.8321C7.28464 21.8321 8.31673 22.2837 9.07382 23.0174L15.6108 19.2433C15.5577 19.0366 15.5294 18.82 15.5294 18.5968C15.5294 17.1673 16.6882 16.0085 18.1176 16.0085C19.5471 16.0085 20.7059 17.1673 20.7059 18.5968C20.7059 18.8368 20.6732 19.0692 20.6121 19.2898L26.7493 22.8331C27.518 21.831 28.7277 21.185 30.0882 21.185C30.1923 21.185 30.2956 21.1888 30.3978 21.1962L32.534 13.2237C31.2955 12.77 30.4118 11.5807 30.4118 10.185C30.4118 8.3982 31.8603 6.94971 33.6471 6.94971C35.4339 6.94971 36.8824 8.3982 36.8824 10.185Z" fill="white"/>
<path d="M24.5882 12.7732C25.6603 12.7732 26.5294 11.9042 26.5294 10.8321C26.5294 9.75998 25.6603 8.89089 24.5882 8.89089C23.5162 8.89089 22.6471 9.75998 22.6471 10.8321C22.6471 11.9042 23.5162 12.7732 24.5882 12.7732Z" fill="white"/>
<path d="M1.94118 18.5968C3.01326 18.5968 3.88235 17.7277 3.88235 16.6556C3.88235 15.5835 3.01326 14.7144 1.94118 14.7144C0.869094 14.7144 0 15.5835 0 16.6556C0 17.7277 0.869094 18.5968 1.94118 18.5968Z" fill="white"/>
<path d="M51.949 37.9791V9.22913H60.6379C62.6398 9.22913 64.3328 9.52727 65.7171 10.1236C67.1226 10.7199 68.2513 11.5078 69.1032 12.4875C69.955 13.4458 70.5726 14.5 70.956 15.65C71.3606 16.7787 71.5629 17.8967 71.5629 19.0041C71.5629 20.0902 71.3712 21.2083 70.9879 22.3583C70.6046 23.487 69.9763 24.5412 69.1032 25.5208C68.2513 26.4791 67.1333 27.2564 65.749 27.8527C64.3648 28.449 62.6611 28.7472 60.6379 28.7472H57.5074V37.9791H51.949ZM57.5074 23.7638H60.3185C61.6814 23.7638 62.7569 23.5296 63.5448 23.0611C64.3541 22.5713 64.9291 21.9643 65.2699 21.2402C65.6319 20.5162 65.8129 19.7708 65.8129 19.0041C65.8129 18.2588 65.6425 17.524 65.3018 16.8C64.9611 16.0546 64.3861 15.437 63.5768 14.9472C62.7888 14.4574 61.7027 14.2125 60.3185 14.2125H57.5074V23.7638Z" fill="white"/>
<path d="M74.6196 37.9791V18.8125H79.6029V22.1027C80.2631 20.9953 81.0937 20.1435 82.0946 19.5472C83.1168 18.9296 84.3094 18.6208 85.6724 18.6208L86.8863 23.5402C86.4816 23.4125 86.0238 23.3486 85.5126 23.3486C83.9154 23.3486 82.627 23.8703 81.6474 24.9138C80.6677 25.9361 80.1779 27.4055 80.1779 29.3222V37.9791H74.6196Z" fill="white"/>
<path d="M97.3051 38.4902C95.5375 38.4902 93.9297 38.0324 92.4815 37.1166C91.0334 36.2009 89.8727 34.987 88.9996 33.475C88.1477 31.9416 87.7218 30.2486 87.7218 28.3958C87.7218 26.543 88.1477 24.85 88.9996 23.3166C89.8727 21.7833 91.0334 20.5694 92.4815 19.675C93.9297 18.7592 95.5375 18.3013 97.3051 18.3013C98.5403 18.3013 99.669 18.525 100.691 18.9722C101.713 19.3981 102.587 19.9944 103.311 20.7611V18.8125H108.102V37.9791H103.311V36.0305C102.587 36.7972 101.713 37.4041 100.691 37.8513C99.669 38.2773 98.5403 38.4902 97.3051 38.4902ZM97.976 33.6027C98.913 33.6027 99.7649 33.3685 100.532 32.9C101.298 32.4314 101.905 31.8032 102.352 31.0152C102.821 30.2273 103.055 29.3541 103.055 28.3958C103.055 27.4375 102.821 26.5643 102.352 25.7763C101.905 24.9884 101.298 24.3601 100.532 23.8916C99.7649 23.4231 98.913 23.1888 97.976 23.1888C97.0389 23.1888 96.1871 23.4231 95.4204 23.8916C94.6537 24.3601 94.0362 24.9884 93.5676 25.7763C93.1204 26.5643 92.8968 27.4375 92.8968 28.3958C92.8968 29.3541 93.1204 30.2273 93.5676 31.0152C94.0362 31.8032 94.6537 32.4314 95.4204 32.9C96.1871 33.3685 97.0389 33.6027 97.976 33.6027Z" fill="white"/>
<path d="M112.309 37.9791V18.8125H117.292V20.9208C117.974 20.0263 118.815 19.3449 119.816 18.8763C120.817 18.4078 121.892 18.1736 123.042 18.1736C124.405 18.1736 125.672 18.5037 126.844 19.1638C128.036 19.8027 128.995 20.7504 129.719 22.0069C130.464 23.2421 130.837 24.7435 130.837 26.5111V37.9791H125.278V27.2458C125.278 26.181 124.959 25.2333 124.32 24.4027C123.681 23.5722 122.766 23.1569 121.573 23.1569C120.615 23.1569 119.752 23.487 118.985 24.1472C118.24 24.7861 117.867 25.7976 117.867 27.1819V37.9791H112.309Z" fill="white"/>
<path d="M142.523 37.9791L155.205 8.2069H155.269L167.951 37.9791H162.169L160.029 32.868H150.254L148.114 37.9791H142.523ZM152.171 28.268H158.112L156.867 25.3291C156.526 24.5412 156.206 23.7851 155.908 23.0611C155.631 22.3157 155.365 21.4532 155.11 20.4736C154.875 21.4319 154.62 22.2838 154.343 23.0291C154.066 23.7745 153.757 24.5412 153.417 25.3291L152.171 28.268Z" fill="white"/>
<path d="M170.502 37.9791V18.8125H176.06V37.9791H170.502ZM173.281 16.0333C172.45 16.0333 171.748 15.7458 171.173 15.1708C170.598 14.5958 170.31 13.893 170.31 13.0625C170.31 12.2106 170.598 11.5078 171.173 10.9541C171.748 10.3791 172.45 10.0916 173.281 10.0916C174.133 10.0916 174.836 10.3791 175.389 10.9541C175.964 11.5078 176.252 12.2106 176.252 13.0625C176.252 13.893 175.964 14.5958 175.389 15.1708C174.836 15.7458 174.133 16.0333 173.281 16.0333Z" fill="white"/>
</g>
</svg>
