<svg width="10" height="11" viewBox="0 0 10 11" fill="none" xmlns="http://www.w3.org/2000/svg">
<path d="M4.65346 7.75246L4.65351 7.75251C4.74613 7.8424 4.87487 7.89551 5.01218 7.89559L4.65346 7.75246ZM4.65346 7.75246L0.653461 3.87152L0.653513 3.87146M4.65346 7.75246L0.653513 3.87146M0.653513 3.87146L0.647178 3.86553M0.653513 3.87146L0.647178 3.86553M0.647178 3.86553C0.600049 3.82136 0.563329 3.76937 0.53838 3.71302C0.513448 3.6567 0.500558 3.59672 0.500018 3.53644C0.499478 3.47617 0.511292 3.41602 0.53518 3.35937C0.559084 3.30269 0.594812 3.25016 0.641065 3.20529C0.687352 3.16038 0.743225 3.12407 0.805809 3.09923C0.868417 3.07438 0.935999 3.0617 1.00447 3.06227C1.07295 3.06285 1.14025 3.07667 1.20234 3.10255C1.2644 3.12841 1.31953 3.1656 1.36493 3.21121L1.36488 3.21126M0.647178 3.86553L1.36488 3.21126M1.36488 3.21126L1.37112 3.21731M1.36488 3.21126L1.37112 3.21731M1.37112 3.21731L4.66411 6.4123L5.01229 6.75011M1.37112 3.21731L5.01229 6.75011M5.01229 6.75011L5.36046 6.4123M5.01229 6.75011L5.36046 6.4123M5.36046 6.4123L8.6498 3.22086C8.74294 3.13486 8.86992 3.08499 9.00447 3.08612C9.14029 3.08727 9.26731 3.14023 9.35893 3.22913C9.45007 3.31756 9.49892 3.43397 9.49998 3.55238C9.50103 3.66967 9.45518 3.78563 9.36745 3.87507L5.37112 7.75246L5.37106 7.75251M5.36046 6.4123L5.37106 7.75251M5.37106 7.75251C5.27844 7.8424 5.1497 7.89551 5.01239 7.89559L5.37106 7.75251Z" fill="#6B7280" stroke="#6B7280"/>
</svg>
